<!DOCTYPE svg PUBLIC "-//W3C//DTD SVG 20010904//EN" "http://www.w3.org/TR/2001/REC-SVG-20010904/DTD/svg10.dtd">
<svg version="1.0" xmlns="http://www.w3.org/2000/svg" width="256px" height="256px" viewBox="0 0 2560 2560" preserveAspectRatio="xMidYMid meet">
<g id="layer101" fill="#3abf50" stroke="none">
 <path d="M1072 2270 c-133 -39 -255 -114 -355 -219 -37 -39 -67 -75 -67 -81 0 -5 -3 -10 -7 -10 -5 0 -16 -15 -27 -33 -52 -92 -75 -141 -101 -223 -28 -84 -29 -98 -30 -264 0 -174 6 -221 42 -315 28 -75 77 -175 85 -175 4 0 8 -5 8 -11 0 -12 51 -81 85 -114 11 -11 74 -79 140 -150 190 -206 205 -223 300 -321 87 -91 92 -94 135 -94 42 0 48 4 120 78 105 110 177 187 315 337 66 71 129 139 140 150 33 32 85 102 85 113 0 6 3 12 8 14 10 5 58 96 77 148 45 126 49 152 49 335 1 172 -1 184 -28 269 -27 82 -50 131 -102 223 -11 18 -22 33 -26 33 -5 0 -8 5 -8 10 0 20 -136 152 -200 194 -152 100 -244 126 -435 125 -103 -1 -157 -6 -203 -19z"/>
 </g>
<g id="layer102" fill="#4ad260" stroke="none">
 <path d="M1055 2261 c-182 -62 -300 -147 -403 -291 -73 -101 -97 -147 -133 -253 -56 -166 -50 -439 13 -607 29 -77 95 -191 138 -240 86 -98 112 -126 325 -355 257 -275 237 -258 292 -252 40 4 53 12 87 49 21 23 78 84 125 133 83 88 251 268 341 368 35 39 41 50 29 58 -8 5 -143 84 -301 176 l-288 167 0 228 c0 125 3 228 6 228 4 0 174 -97 378 -215 205 -118 379 -217 388 -220 14 -6 17 7 23 92 20 263 -29 450 -170 648 -102 142 -250 243 -435 296 -50 15 -97 19 -200 18 -120 0 -144 -3 -215 -28z"/>
 </g>
<g id="layer103" fill="#53dd69" stroke="none">
 <path d="M1080 2270 c-142 -46 -279 -129 -361 -217 -113 -122 -206 -307 -227 -452 -14 -95 -7 -323 12 -396 18 -68 106 -263 130 -288 6 -6 20 -24 31 -38 26 -34 169 -192 220 -244 22 -22 87 -92 145 -155 183 -198 194 -209 223 -216 l27 -6 0 1016 0 1016 -72 -1 c-40 -1 -98 -9 -128 -19z"/>
 </g>

</svg>