<svg id="b72ce2ac-ad56-4574-8404-703cfc0c8b8c" data-name="Layer 1" xmlns="http://www.w3.org/2000/svg" width="977.78726" height="809.98172" viewBox="0 0 977.78726 809.98172"><title>organized_content</title><rect y="558.64058" width="453.78726" height="2.31523" fill="#3f3d56"/><circle cx="272.75464" cy="210.3179" r="55.09416" fill="#2f2e41"/><path d="M213.45517,519.97286v59s-79.34943,25.5-59.5,25.5c24,0,75.5-1.5,75.5-1.5l9-69Z" transform="translate(-111.10637 -45.00914)" fill="#ffb9b9"/><path d="M458.45517,381.97286s54,26,69,44,67,67,67,67l-20,22s-87-45-87-52-21,5-21,5Z" transform="translate(-111.10637 -45.00914)" fill="#ffb9b9"/><path d="M500.45517,378.97286l52.5,27.5s43.62794,54.82283,23,45c-21-10-38-30-38-30S491.53487,409.77121,490.995,407.872,500.45517,378.97286,500.45517,378.97286Z" transform="translate(-111.10637 -45.00914)" fill="#ffb9b9"/><polygon points="255.349 354.964 338.349 343.964 388.349 369.964 407.349 336.964 346.349 303.964 237.349 307.964 255.349 354.964" fill="#2f2e41"/><path d="M480.45517,527.97286s135,2,136,59,0,111,0,111l-42,15s-21-84-9-109c0,0-30.5-2.5-52.5-2.5S480.45517,527.97286,480.45517,527.97286Z" transform="translate(-111.10637 -45.00914)" fill="#ffb9b9"/><path d="M623.45517,695.97286l-58,17,15,46s-8,35-6,46,6,37,6,37h12l2-27s49,41,71,40,29-16,29-16,0-5-15-10-50-63-50-63Z" transform="translate(-111.10637 -45.00914)" fill="#2f2e41"/><circle cx="275.3488" cy="245.96372" r="42" fill="#ffb9b9"/><path d="M351.45517,290.97286l-43,42,43,46s12-44,26-55Z" transform="translate(-111.10637 -45.00914)" fill="#ffb9b9"/><path d="M301.45517,325.97286s-65,64-18,165,35,111,116,112,134.5.5,134.5.5-27.5-225.5-71.5-224.5c0,0-21-5-27,17s-19,40-27,46-10,3-8,11,14,15,0,12-11-10-14,0-18-13-14-15,19-24,14-40-26.83285-55.444-26.83285-55.444S332.45517,308.97286,301.45517,325.97286Z" transform="translate(-111.10637 -45.00914)" fill="#2f2e41"/><path d="M326.45517,390.97286l-50,67-35,85-43-15,34-111s56-95,76-90S351.45517,365.97286,326.45517,390.97286Z" transform="translate(-111.10637 -45.00914)" fill="#2f2e41"/><circle cx="242.29184" cy="150.06501" r="19.23438" fill="#2f2e41"/><path d="M375.10885,199.68943a19.234,19.234,0,0,0-3.633-25.44273,19.2344,19.2344,0,1,1-21.275,31.77693A19.234,19.234,0,0,0,375.10885,199.68943Z" transform="translate(-111.10637 -45.00914)" fill="#2f2e41"/><path d="M369.38116,205.77493S364.22,218.85324,345.651,213.03457Z" transform="translate(-111.10637 -45.00914)" fill="#3f3d56"/><circle cx="258.01415" cy="220.88105" r="39.41732" fill="#2f2e41"/><ellipse cx="307.3488" cy="219.46372" rx="19.5" ry="27" fill="#2f2e41"/><ellipse cx="289.8488" cy="242.96372" rx="4" ry="6.5" fill="#ffb9b9"/><path d="M564.38555,458.25142l-32.31707,50.43321,41.13336,24.644s16.77984,31.37622,25.42933,38.30144,28.5499,23.76691,28.5499,23.76691l8.97373-7.80423-16.06388-21.49161s63.30719-1.207,79.10869-16.26254,11.2809-30.8252,11.2809-30.8252-3.25176-3.739-17.72069,2.27717-78.36275-14.59451-78.36275-14.59451Z" transform="translate(-111.10637 -45.00914)" fill="#2f2e41"/><rect x="524" y="353.64058" width="453.78726" height="2.31523" fill="#3f3d56"/><rect x="717.38127" y="88.09289" width="348.27524" height="295.84671" transform="translate(1671.93142 427.02335) rotate(-180)" fill="#6c63ff"/><path d="M1011.37222,344.63588H659.3179V45.00914h352.05432ZM663.0978,340.856h344.49452V48.789H663.0978Z" transform="translate(-111.10637 -45.00914)" fill="#3f3d56"/><polygon points="620.23 429.003 556.787 429.003 556.787 398.551 559.325 398.551 559.325 426.465 617.692 426.465 617.692 398.551 620.23 398.551 620.23 429.003" fill="#3f3d56"/><polygon points="575.855 394.401 588.509 416.315 601.162 394.401 575.855 394.401" fill="#6c63ff"/><polygon points="782.643 430.1 719.2 430.1 719.2 399.648 721.738 399.648 721.738 427.563 780.105 427.563 780.105 399.648 782.643 399.648 782.643 430.1" fill="#3f3d56"/><polygon points="762.341 403.454 752.191 403.454 752.191 393.304 749.653 393.304 749.653 403.454 739.502 403.454 739.502 405.992 749.653 405.992 749.653 416.143 752.191 416.143 752.191 405.992 762.341 405.992 762.341 403.454" fill="#6c63ff"/><polygon points="943.787 428.646 880.345 428.646 880.345 398.193 882.882 398.193 882.882 426.108 941.25 426.108 941.25 398.193 943.787 398.193 943.787 428.646" fill="#3f3d56"/><polygon points="923.114 396.553 921.32 394.758 912.066 404.012 902.812 394.758 901.018 396.553 910.272 405.806 901.018 415.06 902.812 416.854 912.066 407.601 921.32 416.854 923.114 415.06 913.86 405.806 923.114 396.553" fill="#6c63ff"/><rect x="650.57716" y="127.65461" width="213.40346" height="2.39779" fill="#3f3d56"/><rect x="650.57716" y="144.43915" width="213.40346" height="2.39779" fill="#3f3d56"/><rect x="650.57716" y="161.22369" width="213.40346" height="2.39779" fill="#3f3d56"/><rect x="650.57716" y="176.65461" width="213.40346" height="2.39779" fill="#3f3d56"/><rect x="650.57716" y="193.43915" width="213.40346" height="2.39779" fill="#3f3d56"/><rect x="650.57716" y="210.22369" width="213.40346" height="2.39779" fill="#3f3d56"/></svg>